HIERARCHY
ROOT Hips
{
	OFFSET 0.000000 0.000000 0.000000
	CHANNELS 6 Xposition Yposition Zposition Zrotation Yrotation Xrotation 
	JOINT LHipJoint
	{
		OFFSET 0.000000 0.000000 0.000000
		CHANNELS 3 Zrotation Yrotation Xrotation
		JOINT LeftUpLeg
		{
			OFFSET 1.363060 -1.794630 0.839290
			CHANNELS 3 Zrotation Yrotation Xrotation
			JOINT LeftLeg
			{
				OFFSET 2.448110 -6.726130 0.000000
				CHANNELS 3 Zrotation Yrotation Xrotation
				JOINT LeftFoot
				{
					OFFSET 2.562200 -7.039590 0.000000
					CHANNELS 3 Zrotation Yrotation Xrotation
					JOINT LeftToeBase
					{
						OFFSET 0.157640 -0.433110 2.322550
						CHANNELS 3 Zrotation Yrotation Xrotation
						End Site
						{
							OFFSET 0.000000 0.000000 0.000000
						}
					}
				}
			}
		}
	}
	JOINT RHipJoint
	{
		OFFSET 0.000000 0.000000 0.000000
		CHANNELS 3 Zrotation Yrotation Xrotation
		JOINT RightUpLeg
		{
			OFFSET -1.305520 -1.794630 0.839290
			CHANNELS 3 Zrotation Yrotation Xrotation
			JOINT RightLeg
			{
				OFFSET -2.542530 -6.985550 0.000000
				CHANNELS 3 Zrotation Yrotation Xrotation
				JOINT RightFoot
				{
					OFFSET -2.568260 -7.056230 0.000000
					CHANNELS 3 Zrotation Yrotation Xrotation
					JOINT RightToeBase
					{
						OFFSET -0.164730 -0.452590 2.363150
						CHANNELS 3 Zrotation Yrotation Xrotation
						End Site
						{
							OFFSET 0.000000 0.000000 0.000000
						}
					}
				}
			}
		}
	}
	JOINT LowerBack
	{
		OFFSET 0.000000 0.000000 0.000000
		CHANNELS 3 Zrotation Yrotation Xrotation
		JOINT Spine
		{
			OFFSET 0.028270 2.035590 -0.193380
			CHANNELS 3 Zrotation Yrotation Xrotation
			JOINT Spine1
			{
				OFFSET 0.056720 2.048850 -0.042750
				CHANNELS 3 Zrotation Yrotation Xrotation
				JOINT Neck
				{
					OFFSET 0.000000 0.000000 0.000000
					CHANNELS 3 Zrotation Yrotation Xrotation
					JOINT Neck1
					{
						OFFSET -0.054170 1.746240 0.172020
						CHANNELS 3 Zrotation Yrotation Xrotation
						JOINT Head
						{
							OFFSET 0.104070 1.761360 -0.123970
							CHANNELS 3 Zrotation Yrotation Xrotation
							End Site
							{
								OFFSET 0.000000 0.000000 0.000000
							}
						}
					}
				}
				JOINT LeftShoulder
				{
					OFFSET 0.000000 0.000000 0.000000
					CHANNELS 3 Zrotation Yrotation Xrotation
					JOINT LeftArm
					{
						OFFSET 3.362410 1.200890 -0.311210
						CHANNELS 3 Zrotation Yrotation Xrotation
						JOINT LeftForeArm
						{
							OFFSET 4.983000 -0.000000 -0.000000
							CHANNELS 3 Zrotation Yrotation Xrotation
							JOINT LeftHand
							{
								OFFSET 3.483560 -0.000000 -0.000000
								CHANNELS 3 Zrotation Yrotation Xrotation
								JOINT LeftFingerBase
								{
									OFFSET 0.000000 0.000000 0.000000
									CHANNELS 3 Zrotation Yrotation Xrotation
									JOINT LeftHandIndex1
									{
										OFFSET 0.715260 -0.000000 -0.000000
										CHANNELS 3 Zrotation Yrotation Xrotation
										End Site
										{
											OFFSET 0.000000 0.000000 0.000000
										}
									}
								}
								JOINT LThumb
								{
									OFFSET 0.000000 0.000000 0.000000
									CHANNELS 3 Zrotation Yrotation Xrotation
									End Site
									{
										OFFSET 0.000000 0.000000 0.000000
									}
								}
							}
						}
					}
				}
				JOINT RightShoulder
				{
					OFFSET 0.000000 0.000000 0.000000
					CHANNELS 3 Zrotation Yrotation Xrotation
					JOINT RightArm
					{
						OFFSET -3.136600 1.374050 -0.404650
						CHANNELS 3 Zrotation Yrotation Xrotation
						JOINT RightForeArm
						{
							OFFSET -5.241900 -0.000000 -0.000000
							CHANNELS 3 Zrotation Yrotation Xrotation
							JOINT RightHand
							{
								OFFSET -3.444170 -0.000000 -0.000000
								CHANNELS 3 Zrotation Yrotation Xrotation
								JOINT RightFingerBase
								{
									OFFSET 0.000000 0.000000 0.000000
									CHANNELS 3 Zrotation Yrotation Xrotation
									JOINT RightHandIndex1
									{
										OFFSET -0.622530 -0.000000 -0.000000
										CHANNELS 3 Zrotation Yrotation Xrotation
										End Site
										{
											OFFSET 0.000000 0.000000 0.000000
										}
									}
								}
								JOINT RThumb
								{
									OFFSET 0.000000 0.000000 0.000000
									CHANNELS 3 Zrotation Yrotation Xrotation
									End Site
									{
										OFFSET 0.000000 0.000000 0.000000
									}
								}
							}
						}
					}
				}
			}
		}
	}
}
MOTION
Frames: 7
Frame Time: 0.008333
-0.887360 18.311083 5.998649 -4.608776 -4.015383 0.870203 1.773408 3.734984 2.844224 -11.445190 -9.171431 -4.226729 0.973064 7.287590 23.810756 -0.870416 8.792446 -17.894345 7.841800 -16.001600 -51.990800 -3.094410 -3.876860 1.779564 3.219169 1.821583 -1.942687 0.028519 0.540102 1.362215 0.254007 -1.068257 5.738268 0.000000 0.000000 0.000000 2.896306 2.087079 -0.463377 3.338242 2.074628 14.497987 -3.333138 1.461335 -14.834873 1.577493 -1.796133 -24.036385 -0.205368 -1.598841 33.579367 -0.424300 -0.414900 9.826000 1.037826 -7.165301 0.852173 -93.125666 12.349172 22.314216 24.386554 -33.063620 -6.154208 0.459979 0.001444 13.633085 5.281210 -24.645072 -2.029900 -7.125000 0.000000 0.000000 -15.018000 5.824600 13.914400 -4.053993 9.832390 3.859747 96.620745 -15.693104 17.241332 -32.666143 40.204476 -9.460890 0.745088 -3.199304 16.108036 -9.484266 -32.526725 5.553500 7.125000 0.000000 0.000000 22.250100 -58.495800 -7.583600 
-0.887360 18.310690 5.998649 -4.659065 -4.005967 0.865528 1.785020 3.738461 2.846324 -11.397639 -9.142965 -4.246231 0.977000 7.293130 23.829123 -0.872570 8.793344 -17.877554 7.858500 -16.014200 -52.051500 -3.083594 -3.876275 1.784560 3.220557 1.821547 -1.942617 0.028247 0.540079 1.362141 0.253992 -1.068432 5.738594 0.000000 0.000000 0.000000 2.909279 2.080219 -0.457285 3.445276 2.062865 14.526914 -3.386368 1.451008 -14.845446 1.545177 -1.792088 -24.042631 -0.189389 -1.588019 33.552275 -0.416800 -0.408900 9.821600 1.032090 -7.161674 0.848509 -93.133099 12.317172 22.337100 24.371976 -33.053804 -6.148663 0.460568 0.002436 13.625434 5.323162 -24.633358 -2.046700 -7.125000 0.000000 0.000000 -14.993000 5.831300 13.887500 -4.069168 9.829285 3.858577 96.585311 -15.679985 17.305535 -32.648137 40.198654 -9.476136 0.682423 -3.195571 16.067639 -10.511827 -32.440613 6.020600 7.125000 0.000000 0.000000 21.168000 -58.595800 -7.243900 
-0.887654 18.310592 5.999041 -4.700728 -3.994745 0.865398 1.797812 3.740799 2.847459 -11.360938 -9.120114 -4.268196 0.980547 7.298875 23.849110 -0.873828 8.798355 -17.880073 7.884500 -16.033700 -52.145700 -3.071035 -3.876249 1.790244 3.222508 1.821265 -1.942998 0.027955 0.539691 1.361892 0.253864 -1.069002 5.738831 0.000000 0.000000 0.000000 2.887019 2.079510 -0.478289 3.571313 2.055149 14.553277 -3.429571 1.446941 -14.838933 1.491811 -1.797862 -24.040259 -0.150220 -1.593660 33.551874 -0.403600 -0.408500 9.823400 1.026989 -7.160442 0.843243 -93.160013 12.229742 22.280242 24.287694 -32.970891 -6.111592 0.461386 -0.003647 13.719286 5.327727 -24.714689 -2.053600 -7.125000 0.000000 0.000000 -14.991300 5.757100 13.907900 -4.087019 9.829078 3.857715 96.570544 -15.668805 17.331605 -32.641538 40.190328 -9.470858 0.681516 -3.195007 16.059512 -10.530044 -32.412795 6.023900 7.125000 0.000000 0.000000 21.130400 -58.573600 -7.218900 
-0.887065 18.310396 5.999630 -4.722938 -3.982297 0.884149 1.805639 3.737743 2.839789 -11.353424 -9.200881 -4.257566 0.981440 7.303571 23.861667 -0.870156 8.796076 -17.911812 7.852300 -16.009500 -52.028900 -3.063793 -3.873830 1.785893 3.225303 1.820551 -1.945832 0.027799 0.538034 1.361351 0.253358 -1.070662 5.738294 0.000000 0.000000 0.000000 2.869734 2.079572 -0.472958 3.643367 2.055097 14.479215 -3.446576 1.445765 -14.813765 1.494383 -1.801403 -24.021626 -0.181822 -1.590485 33.574797 -0.410600 -0.411200 9.825900 1.017195 -7.161537 0.843867 -93.196869 12.099162 22.125617 24.112534 -32.788911 -6.033380 0.463121 -0.014621 13.880164 5.345364 -24.849350 -2.069100 -7.125000 0.000000 0.000000 -14.982900 5.634300 13.935800 -4.091580 9.833155 3.866609 96.568926 -15.680092 17.336261 -32.628803 40.177376 -9.467302 0.678413 -3.196710 16.056870 -10.574661 -32.449813 6.051400 7.125000 0.000000 0.000000 21.111000 -58.613800 -7.232500 
-0.886379 18.310592 5.999139 -4.766652 -3.976481 0.913585 1.821324 3.734794 2.828142 -11.330936 -9.265875 -4.259825 0.980215 7.306055 23.866750 -0.873402 8.822820 -17.951010 7.842300 -16.002000 -51.992700 -3.049368 -3.869692 1.780361 3.230053 1.819422 -1.950136 0.027475 0.535469 1.360480 0.252558 -1.073288 5.737577 0.000000 0.000000 0.000000 2.840599 2.081925 -0.435019 3.790097 2.058589 14.372023 -3.492038 1.443859 -14.792370 1.495137 -1.804064 -23.992370 -0.214160 -1.585687 33.551732 -0.417300 -0.413700 9.815100 0.993194 -7.160497 0.848735 -93.221758 12.042660 22.062398 24.031748 -32.704013 -5.998392 0.464647 -0.019035 13.961140 5.390681 -24.914200 -2.092200 -7.125000 0.000000 0.000000 -14.957100 5.570800 13.928700 -4.103378 9.837197 3.877036 96.544430 -15.679940 17.361729 -32.607436 40.157196 -9.461850 0.674116 -3.199026 15.994804 -10.661196 -32.519684 6.103900 7.125000 0.000000 0.000000 21.073700 -58.689500 -7.257700 
-0.886673 18.311181 5.999237 -4.769435 -3.979688 0.941255 1.825913 3.731082 2.818319 -11.331346 -9.255623 -4.280743 0.977953 7.307194 23.866658 -0.879761 8.862134 -17.991617 7.874500 -16.026100 -52.109300 -3.045547 -3.867117 1.773488 3.232671 1.818651 -1.953188 0.027390 0.533679 1.359907 0.252005 -1.075041 5.736902 0.000000 0.000000 0.000000 2.810017 2.083547 -0.405568 3.834637 2.062952 14.278690 -3.501905 1.445254 -14.776286 1.440010 -1.811239 -23.978474 -0.138954 -1.604241 33.561179 -0.396000 -0.414700 9.814000 0.983739 -7.162639 0.857022 -93.220609 12.064064 22.097661 24.051563 -32.723110 -6.009087 0.466495 -0.018561 13.944949 5.433084 -24.958238 -2.113100 -7.125000 0.000000 0.000000 -14.932700 5.523800 13.918100 -4.097621 9.839383 3.883522 96.531687 -15.680637 17.375338 -32.620589 40.146669 -9.431817 0.775999 -3.205947 15.967915 -9.023667 -32.746933 5.370300 7.125000 0.000000 0.000000 22.866700 -58.607800 -7.870300 
-0.886771 18.311671 6.000022 -4.717837 -3.983819 0.956487 1.807494 3.726511 2.814249 -11.362638 -9.216204 -4.301261 0.976627 7.306953 23.859322 -0.880033 8.858554 -17.975258 7.886900 -16.035400 -52.154300 -3.064563 -3.867073 1.763949 3.230105 1.818991 -1.953085 0.027817 0.534015 1.360216 0.252134 -1.074416 5.736442 0.000000 0.000000 0.000000 2.843459 2.080670 -0.395640 3.649603 2.068640 14.223920 -3.448030 1.447951 -14.770713 1.399642 -1.814328 -23.995463 -0.021965 -1.632212 33.622123 -0.367900 -0.412700 9.828800 1.005116 -7.167960 0.864013 -93.206421 12.075437 22.091041 24.050369 -32.720616 -6.010855 0.468942 -0.020470 13.948378 5.469117 -25.049026 -2.134400 -7.125000 0.000000 0.000000 -14.912900 5.434100 13.924600 -4.062534 9.838371 3.886212 96.547667 -15.699819 17.381343 -32.686108 40.166490 -9.392859 0.995224 -3.208983 16.033393 -5.447561 -33.145930 3.732200 7.125000 0.000000 0.000000 26.691200 -58.351000 -9.134600 
